<?xml version="1.0" encoding="UTF-8"?>
<svg id="Layer_1" data-name="Layer 1" xmlns="http://www.w3.org/2000/svg" width="85" height="72" xmlns:xlink="http://www.w3.org/1999/xlink" version="1.1" viewBox="0 0 85 72">
  <defs>
    <style>
      .cls-1 {
        clip-path: url(#clippath);
      }

      .cls-2, .cls-3 {
        fill: none;
      }

      .cls-2, .cls-4, .cls-5 {
        stroke-width: 0px;
      }

      .cls-3 {
        stroke: #ec1e4a;
        stroke-width: 0px;
      }

      .cls-4 {
        fill: #ec1e4a;
      }

      .cls-6 {
        clip-path: url(#clippath-1);
      }

      .cls-7 {
        clip-path: url(#clippath-4);
      }

      .cls-8 {
        clip-path: url(#clippath-3);
      }

      .cls-9 {
        clip-path: url(#clippath-2);
      }

      .cls-10 {
        clip-path: url(#clippath-7);
      }

      .cls-11 {
        clip-path: url(#clippath-8);
      }

      .cls-12 {
        clip-path: url(#clippath-6);
      }

      .cls-13 {
        clip-path: url(#clippath-5);
      }

      .cls-14 {
        clip-path: url(#clippath-9);
      }

      .cls-5 {
        fill: #000;
      }

      .cls-15 {
        clip-path: url(#clippath-20);
      }

      .cls-16 {
        clip-path: url(#clippath-21);
      }

      .cls-17 {
        clip-path: url(#clippath-24);
      }

      .cls-18 {
        clip-path: url(#clippath-23);
      }

      .cls-19 {
        clip-path: url(#clippath-22);
      }

      .cls-20 {
        clip-path: url(#clippath-25);
      }

      .cls-21 {
        clip-path: url(#clippath-27);
      }

      .cls-22 {
        clip-path: url(#clippath-28);
      }

      .cls-23 {
        clip-path: url(#clippath-26);
      }

      .cls-24 {
        clip-path: url(#clippath-29);
      }

      .cls-25 {
        clip-path: url(#clippath-34);
      }

      .cls-26 {
        clip-path: url(#clippath-35);
      }

      .cls-27 {
        clip-path: url(#clippath-36);
      }

      .cls-28 {
        clip-path: url(#clippath-33);
      }

      .cls-29 {
        clip-path: url(#clippath-32);
      }

      .cls-30 {
        clip-path: url(#clippath-30);
      }

      .cls-31 {
        clip-path: url(#clippath-31);
      }

      .cls-32 {
        clip-path: url(#clippath-14);
      }

      .cls-33 {
        clip-path: url(#clippath-13);
      }

      .cls-34 {
        clip-path: url(#clippath-12);
      }

      .cls-35 {
        clip-path: url(#clippath-10);
      }

      .cls-36 {
        clip-path: url(#clippath-15);
      }

      .cls-37 {
        clip-path: url(#clippath-17);
      }

      .cls-38 {
        clip-path: url(#clippath-16);
      }

      .cls-39 {
        clip-path: url(#clippath-19);
      }

      .cls-40 {
        clip-path: url(#clippath-11);
      }

      .cls-41 {
        clip-path: url(#clippath-18);
      }

      .cls-42 {
        isolation: isolate;
      }
    </style>
    <clipPath id="clippath">
      <rect class="cls-2" x="1.6" y="-.6" width="51.7" height="51.7"/>
    </clipPath>
    <clipPath id="clippath-1">
      <rect class="cls-2" x="1.6" y="-.6" width="51.7" height="51.7"/>
    </clipPath>
    <clipPath id="clippath-2">
      <rect class="cls-2" x="1.6" y="-.6" width="51.7" height="51.7"/>
    </clipPath>
    <clipPath id="clippath-3">
      <rect class="cls-2" x="1.6" y="-.6" width="51.7" height="51.7"/>
    </clipPath>
    <clipPath id="clippath-4">
      <rect class="cls-2" x="1.6" y="-.6" width="51.7" height="51.7"/>
    </clipPath>
    <clipPath id="clippath-5">
      <rect class="cls-2" x="1.6" y="-.6" width="51.7" height="51.7"/>
    </clipPath>
    <clipPath id="clippath-6">
      <rect class="cls-2" x="1.6" y="-.6" width="51.7" height="51.7"/>
    </clipPath>
    <clipPath id="clippath-7">
      <rect class="cls-2" x="1.6" y="-.6" width="51.7" height="51.7"/>
    </clipPath>
    <clipPath id="clippath-8">
      <rect class="cls-2" x="1.6" y="-.6" width="51.7" height="51.7"/>
    </clipPath>
    <clipPath id="clippath-9">
      <rect class="cls-2" x="1.6" y="-.6" width="51.7" height="51.7"/>
    </clipPath>
    <clipPath id="clippath-10">
      <rect class="cls-2" x="1.6" y="-.6" width="51.7" height="51.7"/>
    </clipPath>
    <clipPath id="clippath-11">
      <rect class="cls-2" x="1.6" y="-.6" width="51.7" height="51.7"/>
    </clipPath>
    <clipPath id="clippath-12">
      <rect class="cls-2" x="1.6" y="-.6" width="51.7" height="51.7"/>
    </clipPath>
    <clipPath id="clippath-13">
      <rect class="cls-2" x="1.6" y="-.6" width="51.7" height="51.7"/>
    </clipPath>
    <clipPath id="clippath-14">
      <rect class="cls-2" x="1.6" y="-.6" width="51.7" height="51.7"/>
    </clipPath>
    <clipPath id="clippath-15">
      <rect class="cls-2" x="1.6" y="-.6" width="51.7" height="51.7"/>
    </clipPath>
    <clipPath id="clippath-16">
      <rect class="cls-2" x="1.6" y="-.6" width="51.7" height="51.7"/>
    </clipPath>
    <clipPath id="clippath-17">
      <rect class="cls-2" x="1.6" y="-.6" width="51.7" height="51.7"/>
    </clipPath>
    <clipPath id="clippath-18">
      <rect class="cls-2" x="1.6" y="-.6" width="51.7" height="51.7"/>
    </clipPath>
    <clipPath id="clippath-19">
      <rect class="cls-2" x="1.6" y="-.6" width="51.7" height="51.7"/>
    </clipPath>
    <clipPath id="clippath-20">
      <rect class="cls-2" x="1.6" y="-.6" width="51.7" height="51.7"/>
    </clipPath>
    <clipPath id="clippath-21">
      <rect class="cls-2" x="1.6" y="-.6" width="51.7" height="51.7"/>
    </clipPath>
    <clipPath id="clippath-22">
      <rect class="cls-2" x="1.6" y="-.6" width="51.7" height="51.7"/>
    </clipPath>
    <clipPath id="clippath-23">
      <rect class="cls-2" x="1.6" y="-.6" width="51.7" height="51.7"/>
    </clipPath>
    <clipPath id="clippath-24">
      <rect class="cls-2" x="1.6" y="-.6" width="51.7" height="51.7"/>
    </clipPath>
    <clipPath id="clippath-25">
      <rect class="cls-2" x="1.6" y="-.6" width="51.7" height="51.7"/>
    </clipPath>
    <clipPath id="clippath-26">
      <rect class="cls-2" x="1.6" y="-.6" width="51.7" height="51.7"/>
    </clipPath>
    <clipPath id="clippath-27">
      <rect class="cls-2" x="1.6" y="-.6" width="51.7" height="51.7"/>
    </clipPath>
    <clipPath id="clippath-28">
      <rect class="cls-2" x="1.6" y="-.6" width="51.7" height="51.7"/>
    </clipPath>
    <clipPath id="clippath-29">
      <rect class="cls-2" x="1.6" y="-.6" width="51.7" height="51.7"/>
    </clipPath>
    <clipPath id="clippath-30">
      <rect class="cls-2" x="1.6" y="-.6" width="51.7" height="51.7"/>
    </clipPath>
    <clipPath id="clippath-31">
      <rect class="cls-2" x="1.6" y="-.6" width="51.7" height="51.7"/>
    </clipPath>
    <clipPath id="clippath-32">
      <rect class="cls-2" x="1.6" y="-.6" width="51.7" height="51.7"/>
    </clipPath>
    <clipPath id="clippath-33">
      <rect class="cls-2" x="1.6" y="-.6" width="51.7" height="51.7"/>
    </clipPath>
    <clipPath id="clippath-34">
      <rect class="cls-2" x="1.6" y="-.6" width="51.7" height="51.7"/>
    </clipPath>
    <clipPath id="clippath-35">
      <rect class="cls-2" x="1.6" y="-.6" width="51.7" height="51.7"/>
    </clipPath>
    <clipPath id="clippath-36">
      <rect class="cls-2" x="1.6" y="-.6" width="51.7" height="51.7"/>
    </clipPath>
  </defs>
  <g class="cls-42">
    <path class="cls-5" d="M3.2,69c-.4-.4-.6-1-.6-1.8s.2-1.4.6-1.8c.4-.4,1-.6,1.7-.6s1.3.2,1.7.6c.4.4.6,1,.6,1.8s-.2,1.3-.6,1.8-1,.6-1.7.6-1.3-.2-1.7-.6ZM5.7,68.4c.2-.3.3-.7.3-1.2s0-.9-.3-1.2-.4-.4-.8-.4-.6.1-.8.4-.3.7-.3,1.2,0,1,.3,1.2c.2.3.4.4.8.4s.6-.1.8-.4Z"/>
    <path class="cls-5" d="M10,65.7v3.8h-1.2v-3.8h-.8v-.8h.8v-.5c0-.6.1-1,.4-1.2.2-.2.7-.3,1.3-.3.2,0,.4,0,.6,0v.8c0,0-.2,0-.3,0-.2,0-.4,0-.5.2,0,.1-.1.3-.1.6v.5h.9v.8h-.9Z"/>
    <path class="cls-5" d="M16.2,69.5h-1.2v-6.5h1.9l2.4,4.9v-4.9h1.2v6.5h-1.9l-2.4-5v5Z"/>
    <path class="cls-5" d="M23.7,69.6c-.7,0-1.2-.2-1.6-.6s-.6-1-.6-1.8.2-1.3.6-1.7c.4-.4.9-.7,1.6-.7s1.3.2,1.6.6c.4.4.5,1,.5,1.8h0s0,.3,0,.3h-3.1c0,.4,0,.7.2.9.1.2.4.3.7.3s.4,0,.6-.2c.1-.1.2-.3.2-.5h1.2c0,.5-.2.9-.6,1.1-.4.3-.8.4-1.5.4ZM24.6,66.7c0-.3,0-.6-.2-.7-.1-.2-.4-.3-.7-.3s-.6.1-.7.4c0,.2-.1.4-.2.7h1.8Z"/>
    <path class="cls-5" d="M28.1,69.5l-1.4-4.6h1.2l.9,3.3h0l.9-3.3h1.4l1,3.3h0l.9-3.3h1.1l-1.4,4.6h-1.4l-.9-3.1h0l-.9,3.1h-1.4Z"/>
    <path class="cls-5" d="M38.4,62.9h1.3v2.6h2.7v-2.6h1.3v6.5h-1.3v-2.9h-2.7v2.9h-1.3v-6.5Z"/>
    <path class="cls-5" d="M46.5,69.6c-.5,0-.9-.1-1.2-.4-.3-.2-.4-.6-.4-1s.2-1,.6-1.2c.4-.3,1-.4,1.8-.4h.6v-.2c0-.3,0-.5-.2-.6s-.3-.2-.6-.2-.4,0-.5.1c-.1,0-.2.2-.2.5h-1.2c0-.5.2-.8.5-1.1.3-.2.8-.4,1.4-.4s1.2.1,1.6.4c.3.3.5.7.5,1.3v1.6c0,.3,0,.6,0,.9,0,.2,0,.4,0,.5h-1.2v-.5c-.1,0-.2.2-.2.2-.3.3-.7.5-1.3.5ZM47.8,67.3h-.3c-.4,0-.8,0-1,.2-.2.2-.4.4-.4.6s0,.4.2.5c.1.1.3.2.6.2s.5,0,.7-.3c.2-.2.2-.5.3-.9v-.4Z"/>
    <path class="cls-5" d="M50.2,64.9h1.2v.7c0-.1.1-.2.2-.3.3-.3.7-.5,1.2-.5s.8.1,1.1.4c.2.1.3.3.4.5,0-.1.1-.2.2-.3.3-.3.7-.5,1.2-.5s.9.1,1.2.4c.3.3.4.7.4,1.3v2.9h-1.2v-3c0-.3,0-.5-.2-.7-.1-.2-.3-.3-.6-.3s-.5.1-.7.4c-.2.2-.3.5-.3.9v2.6h-1.2v-3c0-.3,0-.5-.2-.7-.1-.2-.3-.3-.6-.3s-.5.1-.7.4c-.2.2-.3.5-.3.9v2.6h-1.2v-4.6Z"/>
    <path class="cls-5" d="M58.4,64.9h1.2v.6h0c.3-.5.8-.7,1.4-.7s1,.2,1.4.6c.3.4.5,1,.5,1.8s-.2,1.3-.5,1.8c-.3.4-.8.6-1.5.6-.5,0-.9-.2-1.3-.6v2.1h-1.2v-6.3ZM60.6,68.8c.3,0,.6-.1.8-.4.2-.3.3-.7.3-1.2s0-.9-.3-1.2c-.2-.3-.4-.4-.8-.4s-.6.1-.8.4c-.2.3-.3.7-.3,1.2,0,.5,0,.9.2,1.2s.4.4.8.4Z"/>
    <path class="cls-5" d="M66.4,66.3c0-.2,0-.4-.2-.5s-.3-.2-.5-.2-.4,0-.5.1c-.1,0-.2.2-.2.3s0,.2.2.3c.1,0,.4.2.7.2l.6.2c.4.1.8.3,1,.5.2.2.3.5.3.8s-.2.8-.6,1.1-.9.4-1.4.4-1.1-.1-1.5-.4-.5-.7-.5-1.1h0s1.2,0,1.2,0c0,.3,0,.5.2.6.1.1.3.2.6.2s.4,0,.6-.2.2-.3.2-.4,0-.2-.1-.3c0,0-.3-.1-.5-.2l-.6-.2c-.5-.1-.9-.3-1.1-.5-.2-.2-.3-.5-.3-.8s.2-.7.5-1c.4-.3.8-.4,1.4-.4s1.1.1,1.4.4c.3.2.5.6.5,1h0c0,.1-1.2.1-1.2.1Z"/>
    <path class="cls-5" d="M68.6,62.9h1.2v2.7c0-.1.1-.2.2-.3.3-.3.7-.5,1.3-.5s.9.2,1.2.5.4.8.4,1.4v2.9h-1.2v-2.9c0-.3,0-.5-.2-.7-.2-.2-.4-.3-.6-.3s-.6.1-.7.4c-.2.2-.3.5-.3.9v2.6h-1.2v-6.5Z"/>
    <path class="cls-5" d="M73.9,62.9h1.3v1.2h-1.3v-1.2ZM74,64.9h1.2v4.6h-1.2v-4.6Z"/>
    <path class="cls-5" d="M76.3,64.9h1.2v.8-.2c.4-.4.8-.7,1.3-.7h0v1.2h0c-.4,0-.7.1-.9.3-.2.2-.3.5-.3.9v2.3h-1.2v-4.6Z"/>
    <path class="cls-5" d="M81.6,69.6c-.7,0-1.2-.2-1.6-.6s-.6-1-.6-1.8.2-1.3.6-1.7c.4-.4.9-.7,1.6-.7s1.3.2,1.6.6.5,1,.5,1.8h0s0,.3,0,.3h-3.1c0,.4,0,.7.2.9.1.2.4.3.7.3s.4,0,.6-.2.2-.3.2-.5h1.2c0,.5-.3.9-.6,1.1-.4.3-.8.4-1.5.4ZM82.6,66.7c0-.3,0-.6-.2-.7-.1-.2-.4-.3-.7-.3s-.6.1-.7.4c0,.2-.1.4-.2.7h1.8Z"/>
  </g>
  <g class="cls-1">
    <g>
      <g class="cls-6">
        <path class="cls-4" d="M22.3,3.9c.4.9.2,2.1-.6,2.8-.6.6-1.3.8-2.2.6-.8-.2-1.5-.8-1.8-1.5-.4-.9-.1-2,.6-2.7.6-.6,1.4-.8,2.2-.6.7,0,1.5.7,1.8,1.4"/>
      </g>
      <g class="cls-9">
        <path class="cls-3" d="M22.3,3.9c.4.9.2,2.1-.6,2.8-.6.6-1.3.8-2.2.6-.8-.2-1.5-.8-1.8-1.5-.4-.9-.1-2,.6-2.7.6-.6,1.4-.8,2.2-.6.7,0,1.5.7,1.8,1.4Z"/>
      </g>
      <g class="cls-8">
        <path class="cls-4" d="M40.6,3.1v20.6h-4.5V3.1c.1,0,4.5,0,4.5,0Z"/>
      </g>
      <g class="cls-7">
        <path class="cls-3" d="M40.6,3.1v20.6h-4.5V3.1c.1,0,4.5,0,4.5,0Z"/>
      </g>
      <g class="cls-13">
        <path class="cls-4" d="M14.6,25.7c0,1.7-1.1,3.4-2.7,4-1.2.5-2.7.8-4.1.6v-.6c.8-.2,1.6-.6,2-1.4.3-.6.4-1.3.4-2V9.6h4.6l-.2,16.1Z"/>
      </g>
      <g class="cls-12">
        <path class="cls-3" d="M14.6,25.7c0,1.7-1.1,3.4-2.7,4-1.2.5-2.7.8-4.1.6v-.6c.8-.2,1.6-.6,2-1.4.3-.6.4-1.3.4-2V9.6h4.6l-.2,16.1Z"/>
      </g>
      <g class="cls-10">
        <path class="cls-4" d="M34.5,10.4c.3.5.5,1.2.3,1.8s-.7,1.2-1.4,1.4-1.5.1-2-.4c-.6-.5-.9-1.3-.6-2.1.1-.7.8-1.4,1.5-1.5.9-.2,1.7,0,2.2.8"/>
      </g>
      <g class="cls-11">
        <path class="cls-3" d="M34.5,10.4c.3.5.5,1.2.3,1.8s-.7,1.2-1.4,1.4-1.5.1-2-.4c-.6-.5-.9-1.3-.6-2.1.1-.7.8-1.4,1.5-1.5.9-.2,1.7,0,2.2.8Z"/>
      </g>
      <g class="cls-14">
        <path class="cls-4" d="M17.9,9.6h0v14c-.1,0,1.7,0,1.7,0h2.6v-14c.1,0-4.3,0-4.3,0Z"/>
      </g>
      <g class="cls-35">
        <path class="cls-3" d="M17.9,9.6h0v14c-.1,0,1.7,0,1.7,0h2.6v-14c.1,0-4.3,0-4.3,0Z"/>
      </g>
      <g class="cls-40">
        <path class="cls-4" d="M29.9,9.6v14h-4.5v-14h4.5"/>
      </g>
      <g class="cls-34">
        <path class="cls-3" d="M29.9,9.6v14h-4.5v-14h4.5Z"/>
      </g>
      <g class="cls-33">
        <path class="cls-4" d="M47.9,10.3c-.6.1-1.1.6-1.3,1.1-.3.6-.2,1.4,0,1.9,1.6,1.8,4.1,2.2,5.3,4.4.7,1,.6,2.5.2,3.5-.9,1.8-2.8,2.6-4.7,2.7v-.7c.7-.2,1.6-1,1.7-1.8.4-1.9-1.8-2.7-3-3.6-.6-.4-1.3-.8-1.9-1.3h0c-.9-.8-1.4-2-1.2-3.3,0-1.2.9-2.4,2-2.9.8-.5,1.8-.7,2.8-.7,0,0,0,.7,0,.7Z"/>
      </g>
      <g class="cls-32">
        <path class="cls-3" d="M47.9,10.3c-.6.1-1.1.6-1.3,1.1-.3.6-.2,1.4,0,1.9,1.6,1.8,4.1,2.2,5.3,4.4.7,1,.6,2.5.2,3.5-.9,1.8-2.8,2.6-4.7,2.7v-.7c.7-.2,1.6-1,1.7-1.8.4-1.9-1.8-2.7-3-3.6-.6-.4-1.3-.8-1.9-1.3h0c-.9-.8-1.4-2-1.2-3.3,0-1.2.9-2.4,2-2.9.8-.5,1.8-.7,2.8-.7,0,0,0,.7,0,.7Z"/>
      </g>
      <g class="cls-36">
        <path class="cls-4" d="M9,10.4c-.6,0-1.2.3-1.6.8-.3.5-.4,1.1-.5,1.7,0,2.4-.2,4.8,0,7.3,0,.9.3,1.7,1,2.2.3.2.7.4,1.1.5v.7c-1.8,0-3.6-.3-4.9-1.6-2.2-2.3-2.1-6.3-1-9,1-2.3,3.1-3.4,5.3-3.4h.7v.8Z"/>
      </g>
      <g class="cls-38">
        <path class="cls-3" d="M9,10.4c-.6,0-1.2.3-1.6.8-.3.5-.4,1.1-.5,1.7,0,2.4-.2,4.8,0,7.3,0,.9.3,1.7,1,2.2.3.2.7.4,1.1.5v.7c-1.8,0-3.6-.3-4.9-1.6-2.2-2.3-2.1-6.3-1-9,1-2.3,3.1-3.4,5.3-3.4h.7v.8Z"/>
      </g>
      <g class="cls-37">
        <path class="cls-4" d="M51.7,10.6c.4.5.5,1.4.2,2-.3.7-1.1,1.2-1.9,1.1-.6-.1-1.3-.4-1.6-1.1-.3-.6-.2-1.5.2-2.1.5-.6,1.3-.9,2-.7.4.2.8.5,1.1.8"/>
      </g>
      <g class="cls-41">
        <path class="cls-3" d="M51.7,10.6c.4.5.5,1.4.2,2-.3.7-1.1,1.2-1.9,1.1-.6-.1-1.3-.4-1.6-1.1-.3-.6-.2-1.5.2-2.1.5-.6,1.3-.9,2-.7.4.2.8.5,1.1.8Z"/>
      </g>
      <g class="cls-39">
        <path class="cls-4" d="M46.8,20.4c.4.7.4,1.7,0,2.4-.5.6-1.1,1-1.8.9-.7,0-1.2-.3-1.6-.8-.4-.5-.6-1.3-.4-1.9s.8-1.2,1.4-1.4c.9-.3,1.9,0,2.4.8"/>
      </g>
      <g class="cls-15">
        <path class="cls-3" d="M46.8,20.4c.4.7.4,1.7,0,2.4-.5.6-1.1,1-1.8.9-.7,0-1.2-.3-1.6-.8-.4-.5-.6-1.3-.4-1.9s.8-1.2,1.4-1.4c.9-.3,1.9,0,2.4.8Z"/>
      </g>
      <g class="cls-16">
        <path class="cls-4" d="M19.8,23.4h0Z"/>
      </g>
      <g class="cls-19">
        <path class="cls-3" d="M19.8,23.4h0Z"/>
      </g>
      <g class="cls-18">
        <path class="cls-4" d="M7,26.4c.4.6.4,1.6,0,2.2-.2.6-1,1.2-1.5,1.3-1,.3-2,0-2.7-.8-.4-.6-.6-1.3-.5-2.1,0-.7.7-1.4,1.4-1.7.6-.3,1.6-.2,2.2.1.4.2.8.6,1,1"/>
      </g>
      <g class="cls-17">
        <path class="cls-3" d="M7,26.4c.4.6.4,1.6,0,2.2-.2.6-1,1.2-1.5,1.3-1,.3-2,0-2.7-.8-.4-.6-.6-1.3-.5-2.1,0-.7.7-1.4,1.4-1.7.6-.3,1.6-.2,2.2.1.4.2.8.6,1,1Z"/>
      </g>
      <g class="cls-20">
        <path class="cls-4" d="M21.5,33.5c1,1.3.6,3.3.7,4.8v8h-4.6v-11.7c-.1-.4-.3-.7-.6-.9-.3-.2-.7-.2-1.1-.2v-.7c1.8-1,4.3-1.2,5.6.7"/>
      </g>
      <g class="cls-23">
        <path class="cls-3" d="M21.5,33.5c1,1.3.6,3.3.7,4.8v8h-4.6v-11.7c-.1-.4-.3-.7-.6-.9-.3-.2-.7-.2-1.1-.2v-.7c1.8-1,4.3-1.2,5.6.7Z"/>
      </g>
      <g class="cls-21">
        <path class="cls-4" d="M7.1,46.1v-14c-1.6,0-2.8-.1-4.4,0v13.9c1.2,0,2.1,0,3.2,0,.4,0,.8.1,1.2,0"/>
      </g>
      <g class="cls-22">
        <path class="cls-3" d="M7.1,46.1v-14c-1.6,0-2.8-.1-4.4,0v13.9c1.2,0,2.1,0,3.2,0,.4,0,.8.1,1.2,0Z"/>
      </g>
      <g class="cls-24">
        <path class="cls-4" d="M10.2,32.2v14h2.4c.6.2,1.4,0,2.1,0v-14c-1.6,0-3,0-4.5,0"/>
      </g>
      <g class="cls-30">
        <path class="cls-3" d="M10.2,32.2v14h2.4c.6.2,1.4,0,2.1,0v-14c-1.6,0-3,0-4.5,0Z"/>
      </g>
      <g class="cls-31">
        <path class="cls-4" d="M31,32.9c-.7,0-1.4.6-1.7,1.3-.3,1.4-.2,2.9-.2,4.5.1,1.9-.3,4.2.9,5.8.6.5,1.3.7,2.1.6.7,0,1.4-.5,1.7-1.2.2-.4.2-.9.3-1.3h.9c0,1.2-.4,2.4-1.4,3.1-1.8,1.2-4.3,1.1-6.1,0-3-2-3.3-6-2.6-9.3.4-1.7,1.8-3.3,3.4-3.9.9-.3,1.8-.4,2.8-.3v.7Z"/>
      </g>
      <g class="cls-29">
        <path class="cls-3" d="M31,32.9c-.7,0-1.4.6-1.7,1.3-.3,1.4-.2,2.9-.2,4.5.1,1.9-.3,4.2.9,5.8.6.5,1.3.7,2.1.6.7,0,1.4-.5,1.7-1.2.2-.4.2-.9.3-1.3h.9c0,1.2-.4,2.4-1.4,3.1-1.8,1.2-4.3,1.1-6.1,0-3-2-3.3-6-2.6-9.3.4-1.7,1.8-3.3,3.4-3.9.9-.3,1.8-.4,2.8-.3v.7Z"/>
      </g>
      <g class="cls-28">
        <path class="cls-4" d="M34.8,33.2c.5.5.6,1.4.3,2-.3.8-1.1,1.3-2,1.3s-1.5-.4-1.8-1.1c-.3-.6-.3-1.4.1-1.9.3-.6.9-.9,1.5-1,.8,0,1.5,0,1.9.7"/>
      </g>
      <g class="cls-25">
        <path class="cls-3" d="M34.8,33.2c.5.5.6,1.4.3,2-.3.8-1.1,1.3-2,1.3s-1.5-.4-1.8-1.1c-.3-.6-.3-1.4.1-1.9.3-.6.9-.9,1.5-1,.8,0,1.5,0,1.9.7Z"/>
      </g>
      <g class="cls-26">
        <path class="cls-4" d="M40.2,42.9c.4.5.6,1.2.4,1.9-.2.7-.8,1.4-1.5,1.6-.9.3-1.6,0-2.2-.4-.6-.5-.9-1.3-.8-2.1,0-.7.6-1.4,1.3-1.7.9-.5,2.1-.2,2.8.7"/>
      </g>
      <g class="cls-27">
        <path class="cls-3" d="M40.2,42.9c.4.5.6,1.2.4,1.9-.2.7-.8,1.4-1.5,1.6-.9.3-1.6,0-2.2-.4-.6-.5-.9-1.3-.8-2.1,0-.7.6-1.4,1.3-1.7.9-.5,2.1-.2,2.8.7Z"/>
      </g>
    </g>
  </g>
</svg>